<?xml version="1.0" encoding="utf-8"?>
<!-- Generator: Adobe Illustrator 21.0.2, SVG Export Plug-In . SVG Version: 6.00 Build 0)  -->
<svg version="1.1" id="Слой_1" xmlns="http://www.w3.org/2000/svg" xmlns:xlink="http://www.w3.org/1999/xlink" x="0px" y="0px"
	 viewBox="0 0 100 100" style="enable-background:new 0 0 100 100;" xml:space="preserve">
<g>
	<path d="M63,30.3c0.3,0,0.7,0,1,0c12.1-0.1,9.5,0.8,15.2-7.8c0.6-0.8,1.2-1.6,1.9-2.3c0.7-0.6,1.5-0.6,2.3-0.1
		c0.8,0.5,1.1,1.4,0.7,2.2c-0.8,1.6-1.7,3.2-2.7,4.8C71.3,42.9,61.2,58.8,51.1,74.7c-0.4,0.7-0.9,1.4-1.3,2.1
		c-0.8,1.6-3,3.2-1.7,4.8c1.7,2.2,4.2,3.8,7.3,3.6c0.8,0,1.6-0.5,2.4-0.6c3.6-0.6,6.9,1.5,7.7,4.8c0.8,3.1-0.6,6.3-3.4,7.6
		c-3.1,1.5-7.6,0.5-8.5-2.8c-1.5-5.5-6-7.2-10-9.6c-2.6-1.5-5.2-2.9-7.8-4.5c-2.5-1.4-4.8-2.4-8-1.8c-3.9,0.8-6.7-1.5-7.4-5
		c-0.7-3.5,1.3-6.7,4.7-7.8c3.4-1,7.4,0.8,8,4.8c0.8,4.5,4.3,5.6,7.3,7.4c1.8,1.1,3.2,0.5,4.2-1.2c4.5-7.2,9.1-14.4,13.6-21.5
		c1-1.6,1-3.1,0-4.7C53.6,42,48.8,33.7,44,25.3c-1.2-2.1-2.7-2.7-4.9-1.5c-2.5,1.3-4.7,2.6-5.8,5.7c-1.4,3.8-5,5.1-8.5,3.7
		c-3.1-1.3-4.9-4.7-4-7.7c1.1-3.7,4.7-5.9,8.6-4.5c2.7,1,4.8,0.6,7.1-0.7c4.2-2.4,8.5-4.6,12.8-6.8c2.5-1.3,4.6-2.7,5.2-5.7
		c0-0.2,0.1-0.3,0.2-0.5c1.7-3.4,4.9-4.8,8.3-3.6c3.3,1.2,4.8,4.5,3.8,8.2c-0.9,3.2-4,5.5-7.3,4.3c-4.1-1.4-7.1,0.4-10.3,2.1
		c-2,1.1-2.5,2.5-1.3,4.5c0.8,1.3,1.5,2.6,2.2,3.9c1.3,2.5,3.3,3.6,6.1,3.4C58.3,30.2,60.6,30.3,63,30.3C63,30.3,63,30.3,63,30.3z
		 M63.5,34.8c-0.5,0-0.7,0-0.9,0c-8.1,0-8,0-4.2,6.9c4.2,7.5,4,7,8.3,0.2c1.2-1.9,3.8-3.9,2.7-6C68.5,33.7,65.3,35.2,63.5,34.8z
		 M31.8,27.1c0-2.4-1.9-4.4-4.3-4.6c-2.7-0.1-4.8,1.9-4.8,4.6c0,2.5,1.8,4.6,4.2,4.6C29.5,31.9,31.8,29.7,31.8,27.1z M27,67.6
		c-2.5-0.1-4.6,1.7-4.8,4c-0.2,2.5,1.9,4.9,4.4,5.1c2.6,0.2,4.7-1.9,4.7-4.6C31.3,69.5,29.6,67.7,27,67.6z M59.3,86.7
		c-2.5-0.1-4.5,1.7-4.6,4.2c-0.2,2.7,1.8,4.9,4.4,4.9c2.5,0,4.8-2.3,4.7-4.8C63.8,88.7,61.8,86.8,59.3,86.7z M60.8,5.2
		C58.3,5.1,56,7.3,56,9.9c0,2.4,1.9,4.4,4.3,4.6c2.6,0.1,4.8-2,4.8-4.6C65.2,7.5,63.2,5.4,60.8,5.2z"/>
</g>
</svg>
