<?xml version="1.0" encoding="utf-8"?>
<!-- Generator: Adobe Illustrator 21.0.2, SVG Export Plug-In . SVG Version: 6.00 Build 0)  -->
<svg version="1.1" id="Слой_1" xmlns="http://www.w3.org/2000/svg" xmlns:xlink="http://www.w3.org/1999/xlink" x="0px" y="0px"
	 viewBox="0 0 100 100" style="enable-background:new 0 0 100 100;" xml:space="preserve">
<g>
	<path d="M1.2,47c0.4-0.8,0.3-1.7,0.4-2.6c0.7-5.3,2.2-10.3,4.5-15.1c2.3-4.7,5.3-8.8,9-12.5c0.4-0.4,0.9-0.8,1.5-0.8
		c0.8,0,1.4,0.3,1.7,1c0.4,0.7,0.3,1.4-0.1,2c-0.2,0.2-0.4,0.5-0.6,0.7C11.9,25.6,8,32.5,6.1,40.5c-1,4.5-1.4,9-1,13.5
		c0.7,8.5,3.6,16.1,8.8,22.9c6.7,8.8,15.5,14.3,26.3,16.6c3.6,0.8,7.2,1,10.9,0.8c11.7-0.7,21.6-5.3,29.7-13.7
		c5.8-6,9.5-13.2,11.2-21.4c0.8-4,1.1-8.1,0.7-12.3c-0.7-9-3.9-17-9.5-23.9C76.6,15,68.3,9.8,58.1,7.6c-3.7-0.8-7.5-1.1-11.4-0.9
		c-6.4,0.3-12.4,1.9-18,4.9c-0.4,0.2-0.7,0.4-1.1,0.5c-0.9,0.3-1.9,0-2.3-0.9c-0.4-0.8-0.3-1.8,0.5-2.4c0.3-0.2,0.6-0.4,0.9-0.5
		c4.7-2.4,9.6-4.1,14.9-4.9c14.3-2.1,27.1,1.5,38.2,10.7c8.3,6.9,13.5,15.7,15.9,26.2c1,4.3,1.3,8.7,1,13.1
		c-1.3,21.2-16.2,38.3-35.7,43.4c-4.8,1.3-9.7,1.7-14.7,1.4C24.1,96.8,7.3,81.1,2.6,62c-0.6-2.4-1-4.8-1.2-7.3c0-0.2,0-0.5-0.2-0.7
		C1.2,51.7,1.2,49.3,1.2,47z"/>
	<path d="M35.8,28.1c-0.2,0.4-0.1,0.8-0.1,1.2c0,10,0,20,0,30c0,0.3,0,0.7,0,1c-0.1,1-1,1.7-1.9,1.7c-1,0-1.8-0.8-1.9-1.9
		c0-0.2,0-0.5,0-0.7c0-11.5,0-23,0-34.5c0-0.2,0-0.4,0-0.6c0.1-1.5,1.6-2.4,2.9-1.6c0.6,0.4,1.2,0.8,1.7,1.2
		c11.6,8.2,23.2,16.3,34.8,24.5c0.3,0.2,0.6,0.4,0.9,0.7c0.9,0.8,0.9,2.1,0,2.9c-0.5,0.4-1,0.7-1.5,1.1C59,61.3,47.3,69.5,35.6,77.8
		c-0.5,0.4-1,0.8-1.7,0.8c-0.8,0-1.5-0.4-1.8-1.2c-0.3-0.8-0.1-1.5,0.4-2c0.2-0.2,0.5-0.4,0.8-0.6c11.1-7.8,22.3-15.7,33.4-23.5
		c1-0.7,1-0.7,0-1.4c-10-7-20-14.1-30-21.1C36.4,28.5,36.1,28.3,35.8,28.1z"/>
</g>
</svg>
