<?xml version="1.0" encoding="utf-8"?>
<!-- Generator: Adobe Illustrator 21.0.2, SVG Export Plug-In . SVG Version: 6.00 Build 0)  -->
<svg version="1.1" id="Слой_1" xmlns="http://www.w3.org/2000/svg" xmlns:xlink="http://www.w3.org/1999/xlink" x="0px" y="0px"
	 viewBox="0 0 500 500" style="enable-background:new 0 0 500 500;" xml:space="preserve">
<g>
	<path d="M34.7,189c-0.2-69.9,46.2-129.6,110-149.5c20-6.2,40.5-8.3,61.2-6.3c70.9,7.1,123.4,59.1,137.3,120.6
		c3.4,15.2,4.8,30.6,3.6,46.1c-2.1,28.8-11.5,55.2-28.2,78.8c-0.1,0.1-0.2,0.3-0.3,0.4c-3.3,4.5-2.9,3.9,0.5,7.3
		c8.5,8.5,17,16.9,25.4,25.5c2.3,2.4,4.5,3.3,7.9,2.9c9.3-1.1,17.8,1.3,25.5,6.6c2.5,1.7,4.6,3.8,6.8,5.9
		c30.4,30.4,60.8,60.8,91.2,91.2c8.2,8.2,12.7,17.7,12.6,29.4c-0.2,17.2-12.2,32.9-29,36.9c-13.6,3.2-25.7,0.2-36.1-9.3
		c-1.8-1.7-3.6-3.5-5.4-5.3c-29.2-29.2-58.4-58.5-87.7-87.6c-5.8-5.8-10.3-12.2-12.2-20.2c-1-4.3-1.3-8.6-0.7-12.9
		c0.4-2.9-0.3-5-2.5-7.1c-8.8-8.6-17.5-17.4-26.2-26.1c-3.1-3-3.1-3-6.5-0.6c-17.3,12.3-36.2,20.9-56.9,25.5
		c-16.6,3.7-33.2,4.7-50.1,2.9c-40-4.3-73.4-21.6-100.3-51.3C56,272.5,44,248.6,38.1,221.7C35.7,210.9,34.7,200,34.7,189z
		 M191.1,47.5C115,47,49.4,109,49.5,189.1c0.1,76.8,61.2,137.8,135.1,141c80.4,3.4,144.8-59.9,147.5-136
		C335,114.1,270.7,47.5,191.1,47.5z M473.2,447.6c0.1-6.4-1.9-11.9-6.3-16.4c-27.8-28-55.8-55.9-83.6-83.8c-1.3-1.3-2.1-1.6-3.6-0.1
		c-10.1,10.2-20.2,20.3-30.4,30.4c-1.1,1.1-1.6,2.1-0.1,3.2c0.8,0.6,1.4,1.4,2.1,2.1c26.4,26.4,52.8,52.7,79.1,79.1
		c1.2,1.2,2.3,2.4,3.6,3.5c7.7,6.1,16.3,7.4,25.3,3.3C468.3,464.9,472.7,457.4,473.2,447.6z M354.1,329.6
		c-8.2,0.1-15.5,4.3-19.8,12.6c-4.1,7.9-3.8,16,0.8,23.7c1.7,2.8,2,2.8,4.4,0.6c2.9-2.8,5.7-5.6,8.5-8.4
		c6.8-6.8,13.7-13.6,20.4-20.5c2.5-2.5,2.4-2.7-0.7-4.7C363.9,330.6,359.8,329.6,354.1,329.6z M305.7,295c-0.6,0.5-1.1,0.8-1.6,1.3
		c-1.9,1.9-3.7,3.8-5.7,5.6c-1.4,1.3-1.5,2.2-0.1,3.6c3.6,3.5,7.1,7,10.6,10.6c4.4,4.4,8.7,8.7,13.1,13.1c1.2,1.2,2.1,1.4,3.1-0.1
		c1.7-2.3,3.7-4.3,6-6c1.1-0.9,1.4-1.6,0.2-2.8c-8-8-16-16-24-24C306.9,295.8,306.4,295.5,305.7,295z"/>
	<path d="M315.9,187.2c-0.5,63.7-44.6,112.7-99.7,123.9c-4.4,0.9-8.8,1.6-13.3,2c-2.5,0.2-3.8-0.8-4.4-3c-0.4-1.3-0.7-2.6-0.9-3.9
		c-1.1-6.6-0.4-7.5,6.2-8.2c21.6-2.4,40.7-10.7,57.3-24.6c19.7-16.4,32.3-37.4,37.6-62.5c3.2-15,3.1-30.1-0.2-45.1
		c-1.3-5.8-0.9-6.5,4.8-8c0.8-0.2,1.6-0.4,2.4-0.5c5.1-0.8,6.2-0.1,7.2,4.9C314.8,171.1,315.8,180,315.9,187.2z"/>
	<path d="M72.1,179.9c1.4-34.2,16.3-63.3,45.3-85c5.5-4.1,11.8-1.7,12.3,4.6c0.3,3.2-1.1,5.8-3.6,7.8c-1.9,1.6-4,3-5.9,4.6
		c-17.7,14.8-28.5,33.7-32,56.4c-3.3,21.4,0.9,41.4,14.3,58.9c2,2.6,2.8,5.2,1.3,8.3c-1.4,2.7-3.5,4.4-6.6,4.6c-3,0.2-5-1.3-6.7-3.5
		c-8.4-10.8-13.8-23-16.5-36.5C72.9,194.2,72.2,188,72.1,179.9z"/>
	<path d="M168.3,76.3c5.6,0,8.3,2,9.1,6c0.8,3.7-1.4,7.9-4.9,9.4c-1.2,0.5-2.6,0.9-3.8,0.9c-4.3,0.1-8.6,0.7-12.8,1.4
		c-3.2,0.6-5.9-0.1-7.7-3.1c-1.7-2.8-1.4-6.5,0.7-9.4c1.4-1.8,3.2-3,5.3-3.4C159.3,77.5,164.4,76.9,168.3,76.3z"/>
</g>
</svg>
