<?xml version="1.0" encoding="utf-8"?>
<!-- Generator: Adobe Illustrator 21.0.2, SVG Export Plug-In . SVG Version: 6.00 Build 0)  -->
<svg version="1.1" id="Слой_1" xmlns="http://www.w3.org/2000/svg" xmlns:xlink="http://www.w3.org/1999/xlink" x="0px" y="0px"
	 viewBox="0 0 500 500" style="enable-background:new 0 0 500 500;" xml:space="preserve">
<g>
	<path d="M248,496c-23.7,0-47.3,0-71,0c-1.4-10.9-2.9-21.8-4.2-32.7c-1.6-14.2-4.9-28.3-2.9-42.7c0.3-1.9-0.4-2.7-2.4-2.7
		c-8.5,0.1-17,0.1-25.5,0c-2.2,0-3,0.9-2.9,3c0.1,5.7-0.6,11.3-1.2,16.9c-0.8,6.8,0.3,13.6,0,20.5c-0.1,2.4-0.2,4.7-1,6.9
		c-0.6,1.7-1.7,1.9-3,0.7c-1.5-1.4-2.1-3.4-2.8-5.2c-0.9-2.8-1.7-5.7-2.7-9.1c-0.9,2.2-0.6,3.9-0.5,5.5c0.1,4-0.4,8-0.9,11.9
		c-0.3,2.2-0.9,4.2-2.3,6c-1.2,1.5-2.6,1.5-3.7-0.1c-1.5-2.1-1.9-4.6-1.9-7.1c0-5.5,0.1-11-0.9-16.4c-0.3-1.8,0.7-3.9-1.2-5.3
		c-1.4,1.7-0.9,3.8-1,5.7c-0.6,7.1-1.2,14.3-3.2,21.2c-0.9,3.2-2.4,4.6-4.2,4.2c-2.5-0.7-2.5-2.9-2.5-4.9
		c-0.1-7.2-0.4-14.3,0.5-21.5c0.1-1.2,0.5-2.3-0.1-3.9c-1.7,5-3.5,9.5-5.7,13.7c-0.9,1.8-1.9,3.6-3.5,4.8c-1.1,0.9-2.4,2.1-4,1.3
		c-1.5-0.7-1.3-2.2-1.3-3.5c-0.1-4.3,1.3-8.2,2.6-12.1c2.1-6.3,4.3-12.6,6-19c0.3-1.2,0.7-2.4-0.1-4c-1.2,1.9-2.2,3.4-3.3,4.8
		c-2.2,2.9-4.4,5.9-7.9,7.5c-2.8,1.4-5,0.1-5.1-3c0-1.1,0.3-2.3,0.6-3.4c1.1-4.8,3.6-8.9,6-13.1c1.4-2.6,1.4-2.7-1.5-2.7
		c-8.2-0.1-16.4-0.5-24.5,0.1c-10.4,0.7-16.1-5-16.1-15.8c0.3-72.8,0.2-145.7,0.2-218.5c0-1.3,0-2.7,0-4c0.2-5.2,2.9-8.7,7.5-10.8
		c2.2-1,4.5-0.9,6.9-0.9c26.8,0,53.7-0.1,80.5,0.1c3.8,0,5.8-0.9,7.4-4.6c5.7-13.3,15.7-21.6,30.2-24.1c2.8-0.5,5.6-0.8,8.4-1.3
		c7.9-1.5,15.5-3.6,22.7-7.4c6-3.1,9.8-7.9,11.1-14.5c1.3-6.4,0.9-12.9,0.2-19.4c-0.1-1.2-0.7-2.2-1.6-3.1c-3-3.3-4.6-7.3-5.7-11.5
		c-0.8-2.8-1.9-5.2-4.1-7.2c-3-2.8-4.7-6.4-4.7-10.7c0-2.1,0.4-4.1,3-4.5c2.4-0.4,2.6-2.1,2.5-4.1c-0.2-3.3-0.2-6.7-0.2-10
		c0.3-18.4,10.5-32,28-37.6c2-0.6,4.3-0.4,6-2c4.7,0,9.3,0,14,0c0.6,1.1,1.7,0.9,2.6,1.1c17,4.5,28,14.8,31,32.6
		c0.9,5.3,0.4,10.6,0.3,16c-0.1,1.7-0.2,3.5,2,3.9c3.4,0.6,3.5,3.1,3.4,5.7c-0.2,3.7-1.8,6.8-4.3,9.3c-2.4,2.3-3.8,4.9-4.6,8.1
		c-0.7,3.1-1.7,6.3-3.8,8.6c-3.2,3.5-3.8,7.6-3.8,12c0,2.5,0,5,0.1,7.5c0.2,10,4.8,17,14,21.1c8.3,3.7,16.9,6.1,25.9,7.2
		c15.9,1.9,26.9,10.1,33.2,24.5c1.6,3.8,3.6,4.6,7.4,4.6c26.3-0.2,52.7,0.2,79-0.2c9.7-0.2,16.2,4.6,16.1,15.9
		c-0.4,44-0.2,88-0.2,132c0,28.8,0,57.7,0,86.5c0,1.8,0.1,3.7-0.1,5.5c-0.8,5.8-5.9,10.1-12.3,10.1c-9.2,0.1-18.3,0-27.5,0
		c-3.5,0-3.5,0.1-1.7,3.2c1.9,3.3,3.7,6.7,5,10.3c0.7,1.9,1.4,3.8,1.3,5.8c-0.1,3.2-2.3,4.4-5.1,2.9c-3.7-1.9-6-5.1-8.4-8.3
		c-0.9-1.2-1.3-2.8-2.9-3.6c-0.5,1.7,0,3,0.3,4.3c1.7,7.3,4.6,14.2,6.8,21.4c1,3.2,1.9,6.4,1.7,9.8c-0.2,3.2-1.9,4-4.6,2.1
		c-2.1-1.5-3.4-3.7-4.4-5.9c-1.9-4.2-3.7-8.4-5.8-13.3c0,1.2-0.1,1.7,0,2.2c1.1,7.1,0.8,14.3,0.8,21.5c0,1.5-0.2,3-0.5,4.4
		c-0.2,1.1-0.7,2.2-2.2,2.3c-1.3,0.1-2.3-0.6-2.8-1.6c-0.5-1-1-2.1-1.3-3.2c-1-3.5-1.7-7.1-2-10.8c-0.4-4.6-0.9-9.3-1.3-13.9
		c-0.1-0.6-0.1-1.5-0.9-1.6c-1-0.1-0.8,0.9-0.8,1.4c-0.3,5.1-1.3,10.3-1.1,15.4c0.1,2.5,0.1,5-0.3,7.5c-0.4,2.2-0.6,4.8-3.2,5.7
		c-1.5,0.5-3.5-2.1-4.1-5.6c-0.9-4.8-1.3-9.6-1.1-14.4c0-1.3,0.4-2.8-0.6-4.5c-1,3.4-1.7,6.2-2.7,9c-0.6,1.7-1.2,3.5-2.4,4.9
		c-1.5,1.8-2.7,1.5-3.6-0.7c-0.9-2.4-1-4.9-0.8-7.4c0.8-11.8-0.6-23.6-1.2-35.4c-0.2-3.9-0.2-4-3.9-4c-7.8,0-15.7,0-23.5,0
		c-3.5,0-3.8,0.1-3.4,3.6c1.4,13.3-1.2,26.2-2.7,39.3c-1.3,11.7-2.9,23.4-4.4,35.1c-23.7,0-47.3,0-71,0c0-1.7,0-3.3-0.2-5
		c-0.8-7.8-1.7-15.5-1.8-23.4c0-2.9-0.1-2.9-3.4-2.8c-0.8,0-1.7-0.1-2.4-0.4c-1.9-0.7-2.4,0-2.4,1.8c0.2,5.2-0.8,10.3-0.9,15.4
		C249,486.4,247.5,491.1,248,496z M254.5,192.3c-58.3,0-116.7,0-175,0c-6.6,0-6.2-0.7-6.2,6.2c0,63,0,126,0,189
		c0,6.8-0.5,6.3,6.1,6.3c116.3,0,232.6,0,349,0c6.5,0,6.2,0.8,6.2-6.2c0-63,0-126,0-189c0-7,0.4-6.3-6.1-6.3
		C370.5,192.3,312.5,192.3,254.5,192.3z"/>
	<path d="M267,305.6c0-8.8-0.1-17.7,0.1-26.5c0-2.9-0.6-5.1-2.8-7c-2.5-2.2-4.8-4.6-7.1-7c-3.6-3.6-3.1-3.1-6.1-0.2
		c-2.4,2.3-4.6,4.8-7.1,7c-2.2,1.9-2.9,4.1-2.9,7c0.1,17.3,0.1,34.7,0.1,52c0,2.3-0.1,4.6-0.7,6.9c-2.6,10-8.1,14.6-18.4,15
		c-4,0.2-8,0.1-12,0c-3.8-0.1-6.7,1.3-8.9,4.5c-2.2,3.2-4.9,5.9-8.1,8.1c-8.1,5.4-16.8,3.6-21.9-4.7c-6.4-10.5-8.5-21.9-7.4-34
		c2-21.8,11.4-40.8,22.7-59c8.4-13.6,18.2-26.3,28.8-38.2c3.6-4,7.3-7.7,11.9-10.6c8-5,13.7-2,13.9,7.5c0.2,11.2,0.1,22.3,0.1,33.5
		c0,1.2,0,2.3,0,3.5c0,0.6-0.2,1.4,0.6,1.6c0.4,0.1,0.9-0.4,1.2-0.7c3-2.7,6.1-5.2,5.2-10c-0.3-1.5,0.8-2,2.2-2c1.8,0,3.7,0,5.5,0
		c4.1,0,4.1,0,4.4,4.4c0.1,2.2,4,7.6,5.9,8.1c0.5,0.1,0.9-0.1,1-0.7c0.1-1.2,0.1-2.3,0.1-3.5c0-10.8,0-21.7,0-32.5
		c0-2.7,0.3-5.3,1.5-7.8c1.7-3.3,4.2-4.4,7.8-3.4c4.2,1.1,7.4,3.8,10.5,6.6c6.1,5.5,11.2,11.8,16.3,18.2
		c13.8,17.4,26,35.8,34.3,56.6c3.8,9.6,6.5,19.6,7.2,29.9c0.8,11.5-1.4,22.5-7.5,32.5c-5.1,8.3-13.7,10.2-21.9,4.9
		c-3.2-2.1-6-4.8-8.1-8c-2.3-3.4-5.4-4.7-9.4-4.6c-3.8,0.1-7.7,0.1-11.5,0c-10.7-0.5-18.3-5.5-19.1-19.3
		C266.6,324.3,267,314.9,267,305.6C267,305.6,267,305.6,267,305.6z"/>
	<path d="M254.4,238.4c0.7,0,1.3,0,2,0c3.7,0.1,3.6,0.2,3.7,4c0,2.2-0.5,3.5-3,3.3c-1.8-0.2-3.6,0-5.5-0.1c-1.2-0.1-2.9,0.6-3.4-1.1
		c-0.5-1.7-0.5-3.6,0.1-5.4c0.2-0.7,1-0.8,1.7-0.8C251.4,238.4,252.9,238.4,254.4,238.4C254.4,238.4,254.4,238.4,254.4,238.4z"/>
	<path d="M253.6,217.9c-0.7,0-1.3,0-2,0c-3.7-0.1-3.7-0.1-3.7-3.6c0-3.3,0-3.4,3.2-3.5c1.7-0.1,3.3,0,5,0c3.9,0.1,4,0.1,3.9,3.8
		c-0.1,3.2-0.1,3.2-3.5,3.3C255.6,217.9,254.6,217.9,253.6,217.9z"/>
	<path d="M253.7,231.8c-0.7,0-1.3,0-2,0c-3.8-0.1-3.9-0.2-3.8-3.9c0.1-3.2,0.1-3.2,3.4-3.3c2.1-0.1,4.3,0,6.4,0
		c1.7,0,2.2,0.8,2.3,2.4c0.3,4.4,0.1,4.7-4.4,4.8C255,231.8,254.4,231.8,253.7,231.8z"/>
</g>
</svg>
