<?xml version="1.0" encoding="utf-8"?>
<!-- Generator: Adobe Illustrator 21.0.2, SVG Export Plug-In . SVG Version: 6.00 Build 0)  -->
<svg version="1.1" id="Слой_1" xmlns="http://www.w3.org/2000/svg" xmlns:xlink="http://www.w3.org/1999/xlink" x="0px" y="0px"
	 viewBox="0 0 500 500" style="enable-background:new 0 0 500 500;" xml:space="preserve">
<g>
	<path d="M277,491c-0.2-3.1-2.4-5.1-4.4-7c-4.9-4.6-7.2-10.2-6.9-17c0.3-6.7,0.3-13.3,0-20c-0.3-7.2-3.8-10.6-11-9.6
		c-13,1.8-23-2.9-31.7-11.9c-1.4-1.5-1.6-3.2-1.6-5c0-61,0-122,0-183c0-2.7,0.9-4.6,3.1-6.3c2.6-2,5.1-4.4,7-7.1
		c2.8-4.1,6.6-4.8,11.2-4.8c57.3,0.1,114.6,0.1,172,0.1c9.7,0,19.8,9.2,20.4,19.1c0.4,7,0.2,14,0.2,21c0.1,11.1,2.6,14.2,13.5,13.3
		c12.1-1,21.3,3.7,29.4,11.9c1.5,1.5,1.6,3.2,1.6,5c0,61.3,0,122.6,0,184c0,2.8-1.2,4.4-3.3,6.2c-3.8,3.1-8.2,5.9-9.3,11.3
		C403.7,491,340.3,491,277,491z M284.8,381.3C284.8,381.3,284.8,381.3,284.8,381.3c0,26.3,0,52.7,0,79c0,9.1,1.6,10.9,10.7,10.9
		c51,0,102,0,153,0c9.1,0,10.8-1.8,10.8-10.8c0-50.2,0-100.3-0.1-150.5c0-3.5,0.1-7-0.2-10.5c-0.5-6.7-3.3-9.1-10-8.9
		c-7.5,0.2-15,0.4-22.5,0.4c-44.2-0.3-88.3,0.5-132.5-0.4c-5.6-0.1-8.3,2.3-9,7.9c-0.3,2.6-0.3,5.3-0.3,8
		C284.8,331.3,284.8,356.3,284.8,381.3z M241.7,328.5C241.8,328.5,241.8,328.5,241.7,328.5c0.1,26.3,0,52.6,0.1,79
		c0,10.3,2.6,12.6,12.9,12.3c7.7-0.2,10.1-2.4,10.8-10c0.3-2.8,0.2-5.7,0.2-8.5c0-35.3,0.3-70.6-0.1-105.9
		c-0.1-12.1,9.2-21.3,21-22.4c2.6-0.2,5.3-0.2,8-0.2c36.6,0,73.3,0,109.9,0.1c9,0,11.5-2.5,11.7-11.6c0.1-4,0-8,0-12
		c0-8.5-1.8-10.4-10.2-10.4c-51.3,0-102.6,0-153.9,0c-8.7,0-10.4,1.9-10.4,10.7C241.7,275.9,241.7,302.2,241.7,328.5z"/>
	<path d="M36.8,218c0-57.7,0-115.3,0-173c0-16.9,6.8-29.6,22.1-37.2c5.3-2.6,11-3.7,16.9-3.7c66.8,0,133.6,0,200.5,0
		c5.1,0,9.2,1.7,12.9,5.4c32.9,33.1,65.8,66.1,98.9,99.1c3.9,3.9,5.4,8.4,5.3,13.5c0,24.7-0.1,49.3-0.4,74
		c-0.1,8.3-1.5,9.6-9.8,10.7c-4.1,0.6-8-0.3-11.9-1.2c-2.7-0.6-4.1-2.7-4.3-5.5c-0.3-4.7-0.8-9.3-0.8-14c-0.1-16-0.2-32,0-48
		c0.1-4.2-1.3-5.4-5.4-5.4c-26.5,0.1-53,0.1-79.5,0.1c-12.1,0-17-4.9-17-16.9c0-26.5-0.1-53,0.1-79.5c0-4.7-1.5-5.8-5.9-5.8
		c-60.3,0.1-120.6,0.1-181,0.1c-9.2,0-13.9,4.7-13.9,13.8c0,116,0,232,0,348c0,9.2,4.6,13.8,13.9,13.8c35,0,70,0,105,0
		c3.2,0,6.3-0.1,9.5,0.1c2.5,0.2,5.3,0,7.4,1.1c8,4.1,3.8,12.2,5.2,18.4c0.9,4.1-2.9,5.9-6.8,6.2c-4,0.3-8,0.7-12,0.7
		c-36.2,0.1-72.3,0.1-108.5,0c-24.3,0-40.5-16-40.6-40.3C36.8,334.3,36.8,276.1,36.8,218z M345.9,106.1
		c-18.3-18.2-36.1-35.9-53.9-53.5c0.3-0.3-0.1-0.1-0.1,0.1c-0.1,16.8-0.1,33.6-0.2,50.4c0,2.1,1,3,3,3
		C311.7,106.1,328.6,106.1,345.9,106.1z"/>
	<path d="M149.6,137.7c-11.5,0-23-0.1-34.5,0.1c-3.7,0.1-4.9-1.2-4.9-4.9c0.1-19.7,0.1-39.3,0-59c0-3.4,1-4.7,4.5-4.7
		c23.6,0.1,47.3,0.1,70.9,0c3.2,0,4.5,1.3,4.5,4.4c0,20,0,40,0,60c0,3.3-1.6,4.2-4.7,4.2C173.6,137.6,161.6,137.7,149.6,137.7z"/>
	<path d="M220.9,190.7c-33.5,0-66.9,0-100.4,0c-1.7,0-3.4,0.2-5-0.2c-3.6-0.7-6.1-3-6.1-6.8c-0.1-4,2.4-6.4,6.2-7.2
		c1.4-0.3,3-0.1,4.5-0.1c67.6,0,135.2,0,202.8,0c1.5,0,3-0.2,4.5,0.2c3.6,0.8,6.1,3,6.1,6.8c0.1,4-2.4,6.5-6.2,7.2
		c-1.6,0.3-3.3,0.1-5,0.1C288.6,190.7,254.7,190.7,220.9,190.7z"/>
	<path d="M155,230.7c-12.1,0-24.3,0-36.4,0c-5.6,0-9.1-2.7-9.2-7c-0.1-4.5,3.4-7.4,9.3-7.4c24.6,0,49.2,0.1,73.9-0.1
		c6.1-0.1,5.5,3.7,5.6,7.6c0.1,4-0.1,7.1-5.7,7C179.9,230.5,167.4,230.7,155,230.7z"/>
	<path d="M155.3,275.7c-12.1,0-24.3,0-36.4,0c-5.9,0-9.5-2.7-9.5-7.2c0-4.4,3.6-7.2,9.5-7.2c24.5,0,48.9,0.1,73.4-0.1
		c5.9-0.1,5.9,3.2,5.9,7.3c0,4.1,0,7.5-5.9,7.3C179.9,275.4,167.6,275.7,155.3,275.7z"/>
	<path d="M155,306.3c12.5,0,25,0.2,37.4-0.1c6.1-0.2,5.6,3.6,5.7,7.5c0,3.9,0,7.1-5.6,7.1c-24.6-0.2-49.2-0.1-73.9-0.1
		c-5.9,0-9.4-2.9-9.3-7.4c0.2-4.3,3.6-6.9,9.2-7C130.7,306.3,142.8,306.3,155,306.3z"/>
	<path d="M155.5,346.3c12.3,0,24.6,0.2,36.9-0.1c6.1-0.2,5.5,3.7,5.6,7.6c0.1,4-0.1,7.1-5.7,7c-24.6-0.2-49.2-0.1-73.9-0.1
		c-5.6,0-9.1-2.7-9.2-7c-0.2-4.5,3.4-7.4,9.3-7.4C130.9,346.3,143.2,346.3,155.5,346.3z"/>
</g>
</svg>
