<?xml version="1.0" encoding="utf-8"?>
<!-- Generator: Adobe Illustrator 21.0.2, SVG Export Plug-In . SVG Version: 6.00 Build 0)  -->
<svg version="1.1" id="Слой_1" xmlns="http://www.w3.org/2000/svg" xmlns:xlink="http://www.w3.org/1999/xlink" x="0px" y="0px"
	 viewBox="0 0 500 500" style="enable-background:new 0 0 500 500;" xml:space="preserve">
<g>
	<path d="M27.3,393c0-25.2,0.4-50.3-0.2-75.5c-0.2-9.1,5.2-13,11.2-16.9c3.5-2.3,7.7-3,12-2.7c2.2,0.1,4.3,0.1,6.5,0.1
		c5.9-0.1,8.2-2.1,8.4-8.1c0.2-6,0.1-12,0.1-18c0-6.2,2.2-11.3,6.9-15.4c3-2.7,6.2-4.4,10.3-4.4c4.2-0.1,8.3,0,12.5-0.2
		c5.9-0.2,7.6-2,7.8-7.9c0.1-3.5,0.1-7,0-10.5c-0.1-5.1,2-9.1,5.2-13.1c4-5,8.5-6.2,14.6-6.2c49,0.2,98,0.2,146.9,0.1
		c4.1,0,7.5,0.6,9.8,4.3c1,1.5,2.3,3.1,3.9,3.9c4.4,2.2,4.6,5.8,4.6,10c-0.1,50.6-0.3,101.3,0.2,151.9c0.1,9.3-5.3,13.2-11.5,17.2
		c-4.2,2.7-9.2,2.7-14,2.6c-11.7-0.2-12.8,1.1-12.7,12.8c0,4.8,0.4,9.7-2.1,14.1c-3.9,6.7-10,10.1-17.6,10.7c-3,0.2-6,0-9,0.1
		c-6,0.1-8.2,1.9-8.6,7.9c-0.3,4.6-0.4,9.3-0.1,14c0.5,7.7-1.6,14-7.1,19.9c-3.5,3.8-6.5,5.1-11.3,5.1c-49.5-0.1-99-0.1-148.4-0.1
		c-3.8,0-7.1-0.1-9.1-4.3c-1-2.1-3.1-4.1-5.2-5.2c-3.4-1.8-4-4.3-3.9-7.8C27.4,445.3,27.3,419.1,27.3,393
		C27.3,393,27.3,393,27.3,393z M45.1,392.9C45.1,392.9,45.1,392.9,45.1,392.9c0,22.8,0,45.7,0,68.5c0,7.5,1.6,9.3,9,9.3
		c44.2,0,88.3,0,132.5,0c7.5,0,9.4-2.2,9.2-9.7c-0.2-6.8-0.7-13.7-0.6-20.5c0.6-34.5,0.1-69,0.3-103.5c0-4.8,0.6-9.6,0.1-14.5
		c-0.7-7-2.5-8.6-9.6-8.5c-43.7,0-87.3,0-131,0c-7.4,0-9.4,1.9-9.7,9.4c-0.1,1.3-0.1,2.7-0.1,4C45.1,349.2,45.1,371,45.1,392.9z
		 M157.8,268.9c-10.2,0-20.3,0-30.5,0c-12.5,0-25-0.1-37.5,0.1c-5.7,0-7.5,1.9-7.7,7.5c-0.1,3.8-0.1,7.7,0,11.5
		c0.2,7.8,2.5,9.9,10.4,9.9c23.3,0,46.6,0,70,0c10,0,20-0.1,30,0.1c7.5,0.1,13.4,3.2,17.5,9.7c2.5,3.9,2.4,8.3,2.4,12.6
		c0,24.1-0.1,48.3-0.1,72.4c0,8.3-0.1,16.7,0.4,24.9c0.4,6.4,2.6,8,9,8.2c1,0,2,0,3,0c5.2-0.3,7.1-2,7.9-7.2
		c0.7-4.4,0.6-8.7-1.6-12.7c-1.3-2.5-1.9-4.9-0.8-7.7c2.4-6.2,2.7-12.6,2.7-19.2c0-33.5,0-67,0-100.4c0-8.1-1.5-9.6-9.6-9.6
		C201.4,268.9,179.6,268.9,157.8,268.9z M269.9,309.1C269.9,309.1,269.9,309.1,269.9,309.1c0-22.7,0-45.3,0-68c0-1.3,0-2.7-0.1-4
		c-0.4-3.4-2.3-5.5-5.8-5.7c-1.7-0.1-3.3-0.2-5-0.2c-42.8,0-85.6,0-128.4,0c-0.8,0-1.7,0-2.5,0c-3.4,0.1-7.2,0.2-8.1,4.2
		c-1.2,4.8-1.9,9.9,1.2,14.5c0.9,1.3,2.5,1.7,4,1.8c2,0.1,4,0.2,6,0.2c31.3,0,62.6,0,93.9,0c2.2,0,4.3,0.1,6.5,0
		c5-0.1,8.8,2.1,12.3,5.7c4.5,4.7,5.9,10.1,5.9,16.4c-0.1,33.1-0.1,66.3-0.1,99.4c0,3-0.2,6,0.4,9c0.5,2.6,1.8,4.6,4.6,5.4
		c10.1,2.9,15-0.7,15.2-11.2c0-0.7,0-1.3,0-2C269.9,352.7,269.9,330.9,269.9,309.1z"/>
	<path d="M285.2,11.3c59.3,0,118.6,0,178,0c8.9,0,11.6,2.6,11.6,11.5c0,105.5,0,211,0,316.5c0,8.7-2.7,11.4-11.2,11.4
		c-48.7,0-97.3,0-146,0c-6.5,0-6.7-0.1-6.7-6.7c0-2.5,0-5,0-7.5c0-2.8,1.2-4.4,4.3-4.2c1.3,0.1,2.7,0,4,0c44.7,0,89.3,0,134,0
		c6.7,0,6.6,0,6.7-6.4c1.9-89.1,0.7-178.3,0.9-267.4c0-8.5-1.1-16.9-1-25.4c0-2.6-1.1-3.6-3.7-3.4c-1.3,0.1-2.7,0-4,0
		c-111.3,0-222.6,0-334,0c-7.8,0-7.9-1.7-7.9,7.7c0,46.3,0,92.7,0,139c0,9,0,9-8.8,8.8c-6-0.1-6.2-0.3-6.2-6.2c0-52,0-104,0-156
		c0-2.3-0.1-4.7,1-6.9c1.4-2.9,3.6-4.7,7-4.8c1.5,0,3,0,4.5,0C166.8,11.3,226,11.3,285.2,11.3z"/>
	<path d="M230.5,159c-2.1-2.3-4.3-2.3-6.1-3.1c-13.5-5.8-21.5-20.2-18.7-34c3.1-15.2,15.7-25.6,30.8-25.6
		c14.4,0.1,27.3,10.7,30.1,24.6c2.9,14.5-4.7,29-18.2,34.8c-1.2,0.5-2.5,0.8-3.8,1.3c-0.6,0.2-1.5,0.8-1.5,1.1
		c0.1,1.2,1.2,0.7,1.9,0.7c19.7,0,39.3,0,59,0c0.3,0,0.5-0.3,1.5-0.8c-11.1-3.2-19.2-9.3-23.3-19.9c-2.5-6.6-2.7-13.3-0.6-20.1
		c4.2-13.5,17.1-22.4,31.2-21.8c13.7,0.6,26,11.1,28.7,24.5c3.3,16.3-3.8,27.6-23.8,37.4c1.2,1.1,2.5,0.7,3.6,0.7
		c6.7,0,13.3-0.1,20,0.1c8.6,0.1,13.2,4.8,13.3,13.4c0.1,4.5,0,9,0,13.5c0.1,4,0.4,4.2,3.9,2c13-8.1,26-16.3,39-24.3
		c2-1.3,4.3-4.2,6.4-3c1.9,1.1,0.7,4.6,0.7,7.1c0.1,23.2,0,46.3,0,69.5c0,1,0.1,2,0,3c-0.2,1.4,0.8,3.3-0.9,4.1
		c-1.2,0.6-2.4-0.8-3.5-1.5c-12.6-7.8-25.1-15.7-37.7-23.5c-2.2-1.4-4.8-4.4-6.8-3.4c-2.4,1.3-0.8,5.1-1,7.8c-0.2,3.3,0,6.7-0.1,10
		c-0.3,6.9-5.2,11.9-12.1,12.1c-9.7,0.2-19.3,0-29,0.1c-3.3,0-4.5-1.6-4.5-4.6c0-5.2,0-10.3,0-15.5c0-3.1,1.4-4.5,4.6-4.4
		c4.3,0.2,8.7-0.1,13,0.1c2.5,0.1,3.6-0.7,3.6-3.4c-0.1-10.5-0.1-21,0-31.5c0-2.4-1.1-3.3-3.3-3.3c-1.3,0-2.7-0.1-4-0.1
		c-28.7,0-57.3,0-86,0c-1.2,0-2.3,0.1-3.5,0c-2.7-0.1-3.8,0.9-3.9,3.8c-0.3,9.1-0.5,9.1-9.8,9.1c-3.5,0-7,0-10.5-0.1
		c-2.9,0-4.1-1.4-4.1-4.3c0.1-7-0.1-14,0.1-21c0.2-6.5,4.8-11.2,11.4-11.6C221,158.8,225.3,159,230.5,159z"/>
	<path d="M334.3,443.7c-15.5-0.3-30.7-2.6-45.4-7.9c-5.5-2-5.9-2.6-6-8.3c-0.3-11.7-0.4-11.5,10.7-7.7
		c38.9,13.3,75.4,8.5,109.4-14.5c0.8-0.6,1.7-1.1,2.4-1.8c0.8-0.7,2.3-1.2,2-2.6c-0.4-1.4-1.9-1.1-3-1.3c-12.8-2-25.6-4-38.4-6.1
		c-1.5-0.2-3-0.5-4.4-0.9c-5.1-1.1-8.1-5.2-7.1-9.7c1-4.4,5.4-7.3,10.3-6.5c12.5,2,25,4,37.4,6c9.9,1.6,19.7,3.2,29.6,4.8
		c0.5,0.1,1,0.2,1.5,0.2c8,1,10.7,6.4,8.2,13.5c-4.6,13.2-8.8,26.5-13.1,39.8c-2.2,6.8-4.4,13.6-6.6,20.4c-0.4,1.3-0.8,2.6-1.3,3.8
		c-2,4.5-6.4,6.6-10.5,5.1c-4.4-1.6-6.5-5.7-5.1-10.5c2.2-7.2,4.6-14.2,6.9-21.4c2-6.2,4-12.3,6-18.5c0.5-1.4,1.6-3.3,0.6-4.1
		c-1.3-1-2.5,0.8-3.7,1.7c-15.2,11-31.8,18.7-50.1,22.8C354.6,442.4,344.6,443.6,334.3,443.7z"/>
</g>
</svg>
