<?xml version="1.0" encoding="utf-8"?>
<!-- Generator: Adobe Illustrator 21.0.2, SVG Export Plug-In . SVG Version: 6.00 Build 0)  -->
<svg version="1.1" id="Слой_1" xmlns="http://www.w3.org/2000/svg" xmlns:xlink="http://www.w3.org/1999/xlink" x="0px" y="0px"
	 viewBox="0 0 500 500" style="enable-background:new 0 0 500 500;" xml:space="preserve">
<g>
	<path d="M264,11c7.1,2.1,14.5,1.9,21.7,3.1c75.4,13,133.9,73.7,144.2,149.7c12.9,95.6-54.1,185-149.9,199.5
		c-50.6,7.6-96.5-4.5-137.1-36c-1.6-1.2-3.1-2.5-4.6-3.9c-4.7-4.3-5.4-10.7-1.8-15.2c3.7-4.6,10.1-5.2,15.2-1.5
		c1.2,0.9,2.4,1.9,3.5,2.8c93.2,74.5,231.3,22,252.1-95.4c14.7-83.3-38.5-160.5-121.1-177.9C198.7,17.7,111.4,79.4,99.5,167.9
		c-1.1,8.4-1.9,16.9-1.6,25.4c0.1,2.3-0.1,4.7,1.3,6.8c2.6,0.1,3.6-2.1,5-3.5c11.8-12.2,23.5-24.6,35.3-36.8
		c1.5-1.6,2.9-3.2,4.6-4.6c4.7-3.8,10.5-3.7,14.5,0.2c3.8,3.7,4.3,9.5,1,14.2c-0.9,1.4-2.1,2.6-3.3,3.8
		c-20.3,21.1-40.7,42.3-61,63.4c-8.3,8.6-14.3,8.3-21.7-1.2c-17.4-22.3-34.8-44.7-52.2-67.1c-2.4-3.1-4.5-6.3-3.6-10.5
		c0.9-4.3,3.4-7.3,7.7-8.4c4.8-1.2,8.9,0.3,12,4.2c8.8,11.3,17.6,22.6,26.4,33.9c3.7,4.8,7.5,9.5,11.3,14.2c0.4-0.2,0.8-0.3,1.2-0.5
		c0-3.4-0.1-6.8,0-10.3c1.1-67.6,30.8-119.2,87.9-154.8c23.4-14.6,49.3-22.4,76.9-24.4c2-0.1,4-0.3,5.8-1.2
		C252.7,11,258.3,11,264,11z"/>
	<path d="M492,377c-1.7,0.5-2.9,1.6-3.8,3c-3.2,5.2-8.2,6.9-14.1,7c-8,0-16-0.1-24,0.1c-7,0.1-9.4,2.3-9.8,9.2
		c-0.5,7.3-0.4,14.7,0.2,22c0.8,9.9-2.8,17.5-15.4,16.8c-7.6-0.4-15.3-0.2-23,0c-8.2,0.2-10.8,2.5-11,10.8
		c-0.3,11.7-0.1,23.3-0.2,35c-0.1,9.8-3.2,13.2-13,13.9c-2.5,0.2-5,0.1-7.5,0.1c-65.7,0-131.3,0-197,0c-1.8,0-3.7,0-5.5,0
		c-11-0.4-15-4.3-15-15.4c0-25.7,0-51.3,0-77c0-2.5-0.4-5,1.4-7.1c4.7-1.6,6.7-0.5,7.3,4c0.3,2,0.2,4,0.2,6c0,22.7,0,45.3,0,68
		c0,10.2,2.1,12.5,12.2,12.5c65.2,0.1,130.3,0,195.5,0c1.2,0,2.3-0.1,3.5-0.2c7.3-0.8,8.8-2.3,8.8-9.8c0-28.7,0-57.3,0-86
		c0-3.3-0.1-6.7,0.8-9.9c0.9-3.3,2.7-5.6,6.3-5.8c2.4,2,1.9,4.5,1.9,6.8c0.1,10.8,0,21.7,0.1,32.5c0.1,10.5,2.2,12.6,12.5,12.7
		c5.3,0,10.7,0.1,16,0.2c9,0.2,11.3-1.9,11.3-11c0-43,0.1-86,0-128.9c0-5.6,0.7-10.7,5.6-14.2c0.5-0.4,1.1-0.6,1.9-0.9
		c2.4,2,1.7,4.6,1.7,7c0.1,27,0,54,0.1,81c0,17.9,0,17.9,17.5,17.9c4.5,0,9,0.3,13.5,0.3c5.2,0,7.3-1.9,7.7-7.1c0.2-2,0.1-4,0.1-6
		c0-65.7,0-131.3,0-197c0-12.4-0.9-13.2-13.4-13.4c-5.2-0.1-10.6,1.1-15.4-1.1c-1.1-5.5,0.4-8.1,5.1-8.5c7-0.6,14-0.8,20.9,0.2
		c4.7,0.7,8.9,2.7,11.6,7c1,1.6,2.2,3,4.1,3.4C492,229,492,303,492,377z"/>
	<path d="M374,194.6c1.1,6.4-0.6,8.8-6.5,9.2c-2.3,0.2-4.7,0.1-7,0.1c-45,0-90,0-135,0c-2.3,0-4.7-0.1-7,0.1
		c-5.2,0.4-7.3,2.2-7.4,7.5c-0.2,11-0.1,22,0,33c0,4.8,2.6,7.4,7.2,8c3,0.3,6,0.5,9,0.5c34.5,0,69,0,103.5,0c2.8,0,5.7-0.5,8,1.4
		c1.2,5.1-0.3,7.6-5,8.3c-2.5,0.4-5,0.3-7.5,0.3c-50.5,0-101,0-151.5,0c-11.1,0-11.3,0.2-12.9,11c-0.4,2.5-1,4.7-4.1,4.7
		c-2.8,0-4.1-2-4.5-4.5c-0.6-4.1-0.7-8.3,0.1-12.5c0.9-5.1,5.2-8.5,10.7-8.6c7.5-0.2,15-0.1,22.5-0.1c2.3,0,4.7,0,7-0.3
		c6.1-0.8,8.2-3,8.3-9.1c0.1-10.7,0-21.3,0.1-32c0-2.3,0-4.7,0.2-7c0.8-6.8,5.4-11.3,12.3-11.4c8.7-0.2,17.3,0,26-0.1
		c7.6-0.1,9.4-2,9.5-9.6c0.1-7.2,0-14.3,0-21.5c0.1-11.7,5.2-17.2,17-17.7c6.3-0.3,12.7-0.1,19-0.1c23.2,0,46.3,0,69.5,0.1
		c7.3,0,9.4,2.2,8.5,8.2c-2.2,2.4-5.2,1.7-7.9,1.7c-27.7,0.1-55.3,0-83,0c-2,0-4,0-6,0.1c-4.1,0.2-6.7,2.3-6.8,6.5
		c-0.2,8.5-0.1,17,0,25.5c0.1,4,2.5,6,6.3,6.4c2.5,0.2,5,0.3,7.5,0.3c30.7,0,61.3,0,92,0C368.7,193,371.5,192.5,374,194.6z"/>
</g>
</svg>
