<?xml version="1.0" encoding="utf-8"?>
<!-- Generator: Adobe Illustrator 21.0.2, SVG Export Plug-In . SVG Version: 6.00 Build 0)  -->
<svg version="1.1" id="Слой_1" xmlns="http://www.w3.org/2000/svg" xmlns:xlink="http://www.w3.org/1999/xlink" x="0px" y="0px"
	 viewBox="0 0 500 500" style="enable-background:new 0 0 500 500;" xml:space="preserve">
<g>
	<path d="M176.7,209.7c2.7,1.2,5.1,0.7,7.4,0.7c79.5,0,159,0,238.5,0c2.8,0,5.7-0.2,8.4,0.9c4.6,1.7,7.5,4.9,7.9,9.9
		c0.2,2.5,0.2,5,0.2,7.5c0,79.8,0,159.6,0,239.5c0,1.8,0,3.7-0.1,5.5c-0.4,8.2-4.4,12-12.6,12.4c-1.5,0.1-3,0.1-4.5,0.1
		c-104.6,0-209.3,0-313.9,0c-2.5,0-5,0-7.5-0.4c-4.9-0.7-8.5-4.3-9.2-9.2c-0.4-3-0.4-6-0.4-9c0-77.2-0.1-154.3,0.1-231.5
		c0-7.5-1.2-14.5-3.8-21.5C79,192,71,169.4,63,146.8c-4.2-11.8-1.7-16.9,10-21C172,90.5,271,55.2,370,19.9
		c11.5-4.1,16.7-1.6,20.7,9.7c9,25.4,18.1,50.8,27.1,76.3c4,11.2,1.5,16.4-9.6,20.3c-75.2,26.8-150.3,53.6-225.5,80.4
		C180.8,207.4,178.6,207.6,176.7,209.7z M415,235.2c-100.4,0-200,0-299.8,0c0,75.8,0,151,0,226.5c100.2,0,199.8,0,299.8,0
		C415,386,415,310.9,415,235.2z M255.3,86.2c-2,23.6-3.9,46.7-6,71.3c20.3-7.3,39.1-14,58-20.7c2-23.9,3.9-46.8,6-71.2
		C293.2,72.7,274.7,79.3,255.3,86.2z M230.6,95c-20.2,7.2-38.9,13.8-58,20.6c-2,23.6-3.9,46.6-6,71.3c20.2-7.2,38.8-13.8,57.9-20.6
		C226.5,142.9,228.4,120,230.6,95z M332.3,127.9c20.8-7.4,40.3-14.4,60.4-21.6c-7.5-20.9-14.5-40.7-21.9-61.3
		c-11.4,4.1-21.9,7.8-32.7,11.7C336,80.4,333.7,103.4,332.3,127.9z M109.9,207.2c11-3.9,21.2-7.6,31.9-11.4c2-23.5,3.9-46.6,6-71.2
		c-20.9,7.4-40.1,14.3-59.8,21.3C95.5,166.7,102.5,186.6,109.9,207.2z"/>
	<path d="M264.5,292.8c-38.8,0-77.7,0-116.5,0c-2.2,0-4.3,0-6.5-0.1c-7.5-0.3-12.2-4.7-12.2-11.6c0-6.9,4.6-11.5,12.1-11.8
		c1.5-0.1,3,0,4.5,0c79.5,0,159,0,238.5,0c2.2,0,4.4-0.1,6.5,0.2c6,0.7,10,5.5,10,11.8c0,6-3.9,10.6-9.8,11.4
		c-2.5,0.3-5,0.2-7.5,0.2C343.8,292.8,304.2,292.8,264.5,292.8z"/>
	<path d="M307.4,370.8c-19.2-13.5-37.7-26.5-56-39.4c-2.5,2.1-1.8,4.2-1.8,6.1c-0.1,16.7,0,33.3,0,50c0,2.5,0,5-0.9,7.4
		c-1.5,3.9-4.4,5.9-8.5,5.6c-4.1-0.4-6.7-2.8-7.5-6.9c-0.3-1.6-0.3-3.3-0.3-5c0-23.8,0-47.7,0-71.5c0-4.3,0-8.6,4.5-10.9
		c4.5-2.2,8.2-0.3,12,2.3c25.4,18,51,35.9,76.4,53.8c7.7,5.4,7.7,11.9,0.2,17.2c-25.5,17.9-51,35.8-76.5,53.8
		c-1.1,0.8-2.2,1.6-3.3,2.2c-4.4,2.3-9.2,1.4-11.6-2.2c-2.7-3.9-1.9-8.7,2.3-11.9c5.3-4,10.8-7.8,16.3-11.6
		c16.4-11.5,32.7-23,49.1-34.5C303.2,374.2,304.7,372.9,307.4,370.8z"/>
</g>
</svg>
