<?xml version="1.0" encoding="utf-8"?>
<!-- Generator: Adobe Illustrator 21.0.2, SVG Export Plug-In . SVG Version: 6.00 Build 0)  -->
<svg version="1.1" id="Слой_1" xmlns="http://www.w3.org/2000/svg" xmlns:xlink="http://www.w3.org/1999/xlink" x="0px" y="0px"
	 viewBox="0 0 500 500" style="enable-background:new 0 0 500 500;" xml:space="preserve">
<g>
	<path d="M131.3,379.4c-2.1-1.1-3.8-0.6-5.5-0.6c-26.8,0-53.7,0-80.5,0c-8.9,0-13.2-4.1-12.9-12.7c1.8-43.2,19.1-78.1,56-102.1
		c6.3-4.1,13.1-7.3,20-10.1c1.6-0.7,3.6-0.9,5-3.4c-21.5-17.3-31.8-39.9-29-67.7c1.6-15.5,8-29.1,18.6-40.7
		c13.4-14.6,30.2-22.5,49.8-23.4c19.4-0.9,36.7,5.4,52,18.7c17-25.1,40-39.5,69.8-40.6c29.6-1.1,53.5,11.3,72.6,35.4
		c3.7-12.5,12.4-11.1,21.4-9.9c37.5,5.1,66.9,39,65.9,76.7c-0.5,19.5-8.3,36.1-22.5,49.7c-1.4,1.4-3.3,2.3-4,4.4
		c0.6,2.1,2.7,2.2,4.3,3c40.9,19.1,65.6,50.7,72.9,95.4c0.8,4.9,1.2,9.9,1.3,14.9c0.2,8.2-4,12.4-12.1,12.4
		c-14.2,0.1-28.3,0-42.5,0.1c-2.1,0-4.3-0.3-6.6,0.9c-1.5,3.6-0.3,7.4-0.3,11.1c0.1,3.2,0.6,6.3,0.4,9.5c-0.5,5.8-4.8,9.9-9.9,10.1
		c-5.1,0.2-9.7-3.7-10.4-9.5c-1.1-8.1-1-16.2-2.5-24.3c-11.1-60.3-63.5-104-124.9-104c-64.3,0-118.7,48.7-125.9,112.8
		c-0.5,4.8-0.7,9.6-1.1,14.4c-0.5,6.3-4.8,10.8-10.3,10.6c-5.6-0.1-10-4.7-10-11C130.5,392.8,131,386.1,131.3,379.4z M213.2,182.6
		c0.1,35.9,29.2,64.9,64.9,64.8c35.9-0.1,64.4-29.3,64.3-65.9c-0.2-35.7-29.3-64.1-65.6-64C241.9,117.7,213.1,147.2,213.2,182.6z
		 M463.9,357.6c1.2-3.4,0.4-6.2-0.1-8.9c-8.5-40.8-40-72-81.1-80.2c-3.6-0.7-7.2-1.2-10.8-2c-4.5-1.1-7.2-4-7.6-8.7
		c-0.4-5,1.8-8.9,6.4-10.7c1.8-0.7,3.8-1.1,5.7-1.7c36.2-10.6,49.2-52.7,25.1-81.7c-12.1-14.6-27.7-21.9-47.8-21.4
		c9.6,20.9,12.2,41.9,6.2,63.7c-6.1,22-19.8,38.4-39.7,51.5c50.3,17.5,83,50.9,99.4,100.2C434.7,357.6,449.3,357.6,463.9,357.6z
		 M196.9,275.8c-27-14.8-69-13.7-99.8,7.6c-25.7,17.7-39.7,42.5-43,73.1c3.1,2.2,5.7,1.7,8.1,1.7c18.8,0,37.6,0,56.4,0
		c5.4,0,11-0.6,16.7,2.8C145.7,325.3,166.1,297.1,196.9,275.8z M200.1,218.1c-8.4-19.4-9.8-39.8-4.2-60.1
		c-15.5-17.9-39.6-23.4-60.5-14.1c-20.3,9-33.1,31.1-30.5,52.6c2.7,23,19.4,41.5,41.3,45.8C167.5,246.3,190.5,236.2,200.1,218.1z
		 M235.6,257.5c-9-6.1-16.4-12.1-23-19.6c-5.3,4.9-10.1,9.3-15.4,14.2c8,3.9,15.3,7.4,22.9,11.1
		C224.7,261.5,229.5,259.7,235.6,257.5z"/>
</g>
</svg>
