<?xml version="1.0" encoding="utf-8"?>
<!-- Generator: Adobe Illustrator 21.0.2, SVG Export Plug-In . SVG Version: 6.00 Build 0)  -->
<svg version="1.1" id="Слой_1" xmlns="http://www.w3.org/2000/svg" xmlns:xlink="http://www.w3.org/1999/xlink" x="0px" y="0px"
	 viewBox="0 0 500 500" style="enable-background:new 0 0 500 500;" xml:space="preserve">
<g>
	<path d="M377,70.2c3.2-1.4,6.4-2.8,9.5-4.3c25.1-12.1,50.1-24.2,75.2-36.2c8.6-4.1,9.7-3.9,16.5,2.9c2.6,2.6,5.1,5.3,7.8,7.7
		c4.3,3.8,4.7,7.9,2.3,13c-10.9,22.3-21.6,44.7-32.3,67.1c-3.2,6.6-6.3,13.2-9.4,19.8c1.2,1.6,2.2,2.7,3.1,3.9
		c2.6,3.4,2.6,6.8-0.2,10c-1.6,1.9-3.4,3.7-5.2,5.4C336,267.8,227.6,376.2,119.2,484.6c-1.1,1.1-2.1,2.2-3.2,3.1
		c-4,3.5-7.1,3.5-11,0c-2.7-2.5-5.2-5.1-7.8-7.7c-21.8-21.8-43.6-43.6-65.4-65.4c-6.5-6.5-6.5-9.3-0.1-15.8
		C141.2,289.3,250.8,179.7,360.3,70.1C366.6,63.9,367.8,63.9,377,70.2z M115.6,336.1c21.9,21.8,43.9,43.8,65.2,65.1
		c60.4-60.4,121.6-121.6,182.2-182.1c-21.5-21.6-43.4-43.7-64.9-65.4C237.3,214.5,176,275.7,115.6,336.1z M396,185.6
		c12.2-12.1,24.9-24.8,38-37.8c-0.8-0.9-2.1-2.4-3.5-3.8c-9.2-9.2-18.4-18.3-27.5-27.6c-3.4-3.5-3.6-8-0.9-10.7
		c2.9-2.9,6.7-2.6,10.6,1.1c4.1,3.9,8,8,12.1,12c3.5,3.4,6.7,7.3,11.7,10.8c13-27.1,25.9-53.7,38.5-79.9c-3.2-4.7-3.6-5.1-7.8-7.3
		c-26.1,12.6-52.6,25.3-79.4,38.3c1.3,1.9,2,3,2.8,4.1c2.4,3.2,2.8,6.5-0.2,9.4c-3.2,3-6.7,2.4-9.9-0.4c-2.1-1.9-4-4-6.1-5.9
		c-2-1.8-3.4-4.6-5.5-4c-12.7,12.6-25.3,25.2-37.4,37.2C352.7,142.5,374.7,164.4,396,185.6z M45.4,406.4
		c21.7,21.6,43.8,43.7,65,64.9c12.1-11.9,24.9-24.6,37-36.5c-21.6-21.6-43.6-43.5-65.1-65.1C70.1,381.7,57.4,394.3,45.4,406.4z
		 M93.6,356.7c22.4,22.4,44.5,44.5,66.8,66.8c3.1-2.4,6.5-5.7,8.7-8.7c-22.4-22.4-44.5-44.5-66.8-66.8
		C99.3,350.4,95.9,353.7,93.6,356.7z M376,207.8c3.2-2.8,6.8-5.9,8.6-8.5c-22.6-22.6-44.6-44.7-66.8-67c-2.8,2.5-6.5,5.5-8.5,8.8
		C331.7,163.5,353.7,185.4,376,207.8z"/>
	<path d="M70.2,139.7c-5.9-12.2-11.7-24.4-17.5-36.5c-7.9-16.4-15.8-32.7-23.6-49.1c-3.5-7.2-3.1-8.8,2.5-14.5
		c2.8-2.8,5.6-5.7,8.5-8.5c5-4.9,6.9-5.4,13.3-2.3c23.7,11.4,47.4,22.8,71.1,34.2c5.1,2.4,10,5.3,15.2,6.9c0.6-0.1,1-0.1,1.2-0.3
		c8.3-6,9.3-5.9,16.7,1.5c26.9,26.9,53.7,53.7,80.6,80.6c1.4,1.4,2.9,2.8,4.1,4.4c2.4,3,2.7,6.2,0,9c-2.9,3-6.3,3.1-9.4,0.4
		c-3.5-3.1-6.7-6.5-10-9.7c-1.2-1.1-2.2-2.6-2.9-2.7c-22.4,22.4-44.5,44.5-66.9,66.9c1.5,2.8,5.1,5.2,7.8,8.2c1.4,1.6,3.1,3,4.5,4.7
		c2.5,3.1,2.7,6.5-0.2,9.4c-3,2.9-6.3,2.6-9.4,0c-1.5-1.3-2.9-2.7-4.3-4.1C125,211.8,98.6,185.4,72.2,159
		C63.6,150.4,63.6,150.4,70.2,139.7z M119.8,186c22.2-22.2,44.2-44.3,65.4-65.5c-11.7-12-24.2-24.8-36.8-37.7c-2,0.7-3.2,2.5-4.8,4
		c-5.9,5.8-11.7,11.8-17.8,17.6c-2.9,2.7-6.3,3.1-9.4,0.3c-2.8-2.5-2.9-6.5-0.1-9.9c1.4-1.7,3.1-3.1,4.5-4.7
		c2.6-2.9,6.1-5.2,8.3-9.7c-26.8-12.9-53.4-25.7-79.7-38.4c-3.3,2.3-5.8,4.2-7.2,7.8c12.6,26.2,25.4,52.6,38.4,79.6
		c5.2-3.8,8.6-7.9,12.4-11.6c4.3-4.1,8.3-4.8,11.4-1.8c3.3,3.1,2.7,7.1-1.8,11.7c-5.5,5.6-11.1,11.1-16.6,16.6
		c-1.4,1.4-3.2,2.5-3.3,4C95.7,161.6,108.2,174.2,119.8,186z M199,132.2c-22.6,22.4-44.7,44.4-66.8,66.4c2.5,3.7,6.2,7.3,8.7,8.6
		c22.3-22.3,44.4-44.3,66.7-66.5C205.2,137.8,202,134.5,199,132.2z"/>
	<path d="M335.4,402.5c22.5-22.5,44.5-44.6,66.9-67c-0.4-1.2-2.2-2.5-3.7-4c-14.7-14.8-29.5-29.5-44.2-44.2c-5.4-5.4-6.2-9-2.9-12.4
		c3.2-3.4,7.3-2.6,12.4,2.6c40.4,40.4,80.8,80.8,121.3,121.3c6.5,6.5,6.5,9.3,0,15.8c-23.7,23.7-47.4,47.4-71,71.1
		c-6.3,6.3-9,6.3-15.4,0c-40.5-40.5-81.1-81.1-121.6-121.6c-0.9-0.9-1.9-1.9-2.7-2.9c-2.3-3-2.6-6.2,0.1-9.1c2.9-3,6.3-2.8,9.5-0.4
		c1.5,1.1,2.7,2.5,4,3.8c14.2,14.3,28.5,28.6,42.7,42.8C332.6,400,334.1,402.1,335.4,402.5z M369.5,434.4
		c12.3,12.3,25.1,25.1,36.8,36.8c21.5-21.5,43.5-43.5,64.8-64.7c-11.8-12-24.3-24.8-36.3-37.2C412.9,391.1,390.9,413,369.5,434.4z
		 M414.8,348.1c-22.4,22.4-44.5,44.5-66.7,66.7c1.9,3.1,5.7,6.9,8.7,8.6c22.2-22.3,44.3-44.3,66.6-66.7
		C421,353.6,417.7,350.2,414.8,348.1z"/>
</g>
</svg>
